<mxfile host="app.diagrams.net" modified="2023-07-06T09:53:34.950Z" agent="Mozilla/5.0 (Windows NT 10.0; Win64; x64) AppleWebKit/537.36 (KHTML, like Gecko) Chrome/114.0.0.0 Safari/537.36 Edg/114.0.1823.67" version="21.6.1" etag="kgJsvB5dHGx2m_Lhfo8P" type="github">
  <diagram name="Page-1" id="WMRc9tm8sXodHdgXV-Nx">
    <mxGraphModel>
      <root>
        <mxCell id="0" />
        <mxCell id="1" parent="0" />
      </root>
    </mxGraphModel>
  </diagram>
</mxfile>
